<?xml version="1.0" encoding="UTF-8" standalone="no"?>
<svg
   xmlns:dc="http://purl.org/dc/elements/1.1/"
   xmlns:cc="http://creativecommons.org/ns#"
   xmlns:rdf="http://www.w3.org/1999/02/22-rdf-syntax-ns#"
   xmlns:svg="http://www.w3.org/2000/svg"
   xmlns="http://www.w3.org/2000/svg"
   xmlns:sodipodi="http://sodipodi.sourceforge.net/DTD/sodipodi-0.dtd"
   xmlns:inkscape="http://www.inkscape.org/namespaces/inkscape"
   version="1.0"
   width="72.000000pt"
   height="72.000000pt"
   viewBox="0 0 72.000000 72.000000"
   preserveAspectRatio="xMidYMid meet"
   id="svg2"
   inkscape:version="0.48.4 r9939"
   sodipodi:docname="icon.svg"
   inkscape:export-filename="/home/jelmer/Pictures/Happening/hunt.png"
   inkscape:export-xdpi="50"
   inkscape:export-ydpi="50">
  <defs
     id="defs20" />
  <sodipodi:namedview
     pagecolor="#ffffff"
     bordercolor="#666666"
     borderopacity="1"
     objecttolerance="10"
     gridtolerance="10"
     guidetolerance="10"
     inkscape:pageopacity="0"
     inkscape:pageshadow="2"
     inkscape:window-width="1198"
     inkscape:window-height="1679"
     id="namedview18"
     showgrid="false"
     inkscape:zoom="5.2444444"
     inkscape:cx="43.001503"
     inkscape:cy="40.725862"
     inkscape:window-x="1280"
     inkscape:window-y="0"
     inkscape:window-maximized="0"
     inkscape:current-layer="svg2" />
  <metadata
     id="metadata4">
Created by potrace 1.10, written by Peter Selinger 2001-2011
<rdf:RDF>
  <cc:Work
     rdf:about="">
    <dc:format>image/svg+xml</dc:format>
    <dc:type
       rdf:resource="http://purl.org/dc/dcmitype/StillImage" />
    <dc:title />
  </cc:Work>
</rdf:RDF>
</metadata>
  <path
     style="fill:#000000;fill-opacity:1;stroke:none"
     d="M 44.96875 1.1875 A 0.94390219 0.94390219 0 0 0 44.46875 1.5 C 43.683805 2.3547275 42.774233 3.0625575 41.75 3.6875 C 40.70807 4.3342287 39.644244 4.9083312 38.625 5.3125 A 0.94390219 0.94390219 0 0 0 38.125 6.53125 L 39.1875 9.125 A 0.94390219 0.94390219 0 0 0 40.34375 9.65625 C 41.10138 9.3970725 41.89513 9.0740325 42.6875 8.6875 C 42.889581 8.5889263 43.033893 8.474875 43.21875 8.375 L 43.21875 21.53125 A 0.94390219 0.94390219 0 0 0 44.15625 22.46875 L 47.53125 22.46875 A 0.94390219 0.94390219 0 0 0 48.46875 21.53125 L 48.46875 2.125 A 0.94390219 0.94390219 0 0 0 47.53125 1.1875 L 45.15625 1.1875 A 0.94390219 0.94390219 0 0 0 44.96875 1.1875 z M 15.46875 16.125 C 14.128266 16.125023 12.848528 16.38334 11.65625 16.90625 C 10.50704 17.398787 9.4910753 18.050184 8.625 18.875 A 0.97879914 0.97879914 0 0 0 8.53125 20.125 L 10.1875 22.53125 A 0.97879914 0.97879914 0 0 0 11.6875 22.6875 C 11.77913 22.595879 11.918489 22.436825 12.15625 22.25 A 0.97879914 0.97879914 0 0 0 12.1875 22.21875 C 12.423319 22.016631 12.69392 21.792962 12.96875 21.625 L 12.96875 21.65625 C 13.22419 21.508374 13.573185 21.361036 14 21.21875 C 14.357019 21.099756 14.708466 21.031264 15.125 21.03125 C 15.753444 21.031264 16.17109 21.181733 16.5625 21.46875 C 16.83569 21.669101 17.031242 21.980583 17.03125 22.75 C 17.031242 23.071658 16.9834 23.335048 16.84375 23.65625 C 16.701969 23.968161 16.471981 24.350596 16.1875 24.71875 C 15.91071 25.082036 15.562815 25.437187 15.1875 25.8125 C 14.788285 26.211718 14.386841 26.631884 13.9375 27.0625 C 13.343441 27.637399 12.758719 28.210034 12.1875 28.78125 C 11.57424 29.394512 11.062135 30.019261 10.5625 30.71875 C 10.062459 31.418807 9.5855123 32.202748 9.25 33.0625 C 8.9237809 33.932416 8.749998 34.901249 8.75 35.90625 L 8.75 36.375 C 8.7499978 36.645149 8.7606434 36.897661 8.78125 37.0625 A 0.97879914 0.97879914 0 0 0 9.78125 37.90625 L 22.125 37.90625 A 0.97879914 0.97879914 0 0 0 23.09375 36.9375 L 23.09375 34.09375 A 0.97879914 0.97879914 0 0 0 22.125 33.09375 L 15.1875 33.09375 C 15.296128 32.954455 15.372654 32.83607 15.5 32.6875 C 15.827941 32.304899 16.172386 31.908055 16.53125 31.53125 C 16.894724 31.1496 17.219544 30.825426 17.5 30.5625 C 18.076154 30.00555 18.66643 29.427319 19.21875 28.875 A 0.97879914 0.97879914 0 0 0 19.21875 28.84375 C 19.806272 28.23664 20.319598 27.642294 20.78125 27 C 21.26522 26.334535 21.688621 25.643275 22 24.9375 C 22.325219 24.178634 22.499984 23.379834 22.5 22.5625 C 22.499985 20.673704 21.938238 19.040854 20.75 17.875 C 19.534118 16.635774 17.696624 16.125021 15.46875 16.125 z M 74.34375 27.09375 C 73.70717 27.093773 73.103962 27.197946 72.5625 27.3125 C 72.550611 27.315015 72.543098 27.309961 72.53125 27.3125 C 71.985116 27.411992 71.467396 27.539257 70.96875 27.71875 A 0.74918944 0.74918944 0 0 0 70.9375 27.71875 C 70.483064 27.889181 70.069438 28.074676 69.65625 28.28125 C 69.262581 28.478103 68.917681 28.686868 68.625 28.875 A 0.74918944 0.74918944 0 0 0 68.34375 29.84375 L 69.59375 32.34375 A 0.74918944 0.74918944 0 0 0 70.65625 32.625 C 71.104305 32.342902 71.629264 32.105573 72.25 31.875 C 72.793434 31.657639 73.486851 31.531266 74.25 31.53125 C 74.611623 31.531266 74.887499 31.55429 75.15625 31.625 C 75.40207 31.689702 75.627807 31.792402 75.8125 31.9375 A 0.74918944 0.74918944 0 0 0 75.84375 31.9375 C 76.030106 32.074176 76.158766 32.268667 76.28125 32.5 C 76.398005 32.720561 76.468742 32.950796 76.46875 33.28125 C 76.468743 33.727514 76.388932 34.030021 76.25 34.25 C 76.073985 34.52869 75.849744 34.72723 75.625 34.875 C 75.375631 35.019376 75.068462 35.136449 74.6875 35.21875 C 74.673515 35.221771 74.670411 35.2158 74.65625 35.21875 C 74.276248 35.282945 73.867316 35.34376 73.5 35.34375 L 72.09375 35.34375 A 0.74918944 0.74918944 0 0 0 71.375 36.09375 L 71.375 38.8125 A 0.74918944 0.74918944 0 0 0 72.09375 39.5625 L 73.25 39.5625 C 73.819109 39.562507 74.346203 39.64425 74.875 39.75 A 0.74918944 0.74918944 0 0 0 74.90625 39.75 C 75.426779 39.833965 75.843333 39.965789 76.15625 40.15625 A 0.74918944 0.74918944 0 0 0 76.21875 40.1875 C 76.571224 40.378434 76.77416 40.629846 76.9375 40.90625 A 0.74918944 0.74918944 0 0 0 77 40.90625 C 77.16296 41.162344 77.249991 41.55132 77.25 42.0625 C 77.249991 42.82177 77.03998 43.31074 76.5625 43.75 C 76.547924 43.76341 76.546341 43.767884 76.53125 43.78125 C 76.075944 44.150126 75.15408 44.437503 73.8125 44.4375 C 72.769006 44.437503 71.939707 44.32254 71.28125 44.125 C 70.538689 43.883671 69.972702 43.713195 69.65625 43.5625 A 0.74918944 0.74918944 0 0 0 68.59375 44.0625 L 67.9375 46.9375 A 0.74918944 0.74918944 0 0 0 68.3125 47.78125 C 68.608906 47.942927 68.942471 48.022491 69.34375 48.15625 A 0.74918944 0.74918944 0 0 0 69.375 48.15625 C 69.784896 48.273364 70.199553 48.402411 70.6875 48.5 C 71.210093 48.6206 71.729111 48.693681 72.25 48.75 C 72.262743 48.751378 72.299769 48.748636 72.3125 48.75 C 72.865841 48.824955 73.404 48.875 73.9375 48.875 C 75.294235 48.875 76.492889 48.738523 77.53125 48.40625 C 78.551059 48.066311 79.419779 47.62961 80.125 47.03125 A 0.74918944 0.74918944 0 0 0 80.15625 47 C 80.85713 46.384065 81.378169 45.642631 81.71875 44.8125 C 82.059284 43.961129 82.187485 43.028616 82.1875 42.09375 C 82.187485 40.68767 81.86327 39.447497 81.0625 38.46875 C 80.618212 37.910234 80.031399 37.461923 79.4375 37.09375 C 79.834998 36.762865 80.205308 36.399451 80.5 35.96875 C 81.089141 35.139584 81.374984 34.185015 81.375 33.15625 C 81.374985 32.306571 81.240517 31.517205 80.9375 30.78125 C 80.657495 30.027447 80.208234 29.36118 79.59375 28.8125 C 78.995553 28.236493 78.248411 27.822413 77.375 27.53125 C 76.48985 27.236225 75.48604 27.093771 74.34375 27.09375 z M 31.21875 29.0625 L 31.21875 44.9375 L 3.28125 44.9375 L 3.28125 83.71875 L 31.40625 83.71875 L 59.28125 83.71875 L 59.34375 83.71875 L 87.4375 83.71875 L 87.4375 55.5 L 59.34375 55.5 L 59.34375 29.0625 L 31.21875 29.0625 z "
     transform="scale(0.8,0.8)"
     id="rect3046-1" />
  <text
     xml:space="preserve"
     style="font-size:22.4px;font-style:normal;font-variant:normal;font-weight:bold;font-stretch:normal;line-height:125%;letter-spacing:0px;word-spacing:0px;fill:#ff0000;fill-opacity:1;stroke:none;font-family:Arial;-inkscape-font-specification:Arial Bold"
     x="51.235279"
     y="55.173256"
     id="text3865"
     sodipodi:linespacing="125%"><tspan
       sodipodi:role="line"
       id="tspan3867"
       x="51.235279"
       y="55.173256" /></text>
  <text
     xml:space="preserve"
     style="font-size:40px;font-style:normal;font-weight:normal;line-height:125%;letter-spacing:0px;word-spacing:0px;fill:#000000;fill-opacity:1;stroke:none;font-family:Sans"
     x="68.628311"
     y="51.70837"
     id="text3869"
     sodipodi:linespacing="125%"
     transform="scale(0.8,0.8)"><tspan
       sodipodi:role="line"
       id="tspan3871"></tspan></text>
  <text
     xml:space="preserve"
     style="font-size:28px;font-style:normal;font-weight:normal;line-height:125%;letter-spacing:0px;word-spacing:0px;fill:#000000;fill-opacity:1;stroke:none;font-family:Sans"
     x="19.010984"
     y="22.854818"
     id="text3907"
     sodipodi:linespacing="125%"
     transform="scale(0.8,0.8)"><tspan
       sodipodi:role="line"
       id="tspan3909"
       x="19.010984"
       y="22.854818" /></text>
</svg>
